<svg width="573pt" height="484pt" viewBox="0.00 0.00 572.65 484.00" xmlns="http://www.w3.org/2000/svg" xmlns:xlink="http://www.w3.org/1999/xlink">
<g id="graph0" class="graph" transform="scale(1 1) rotate(0) translate(4 480)">
<title>dependency-cruiser output</title>
<polygon fill="white" stroke="none" points="-4,4 -4,-480 568.65,-480 568.65,4 -4,4"></polygon>
<g id="clust1" class="cluster">
<title>cluster_src</title>
<path fill="#ffffff" stroke="black" stroke-width="2" d="M20,-8C20,-8 544.65,-8 544.65,-8 550.65,-8 556.65,-14 556.65,-20 556.65,-20 556.65,-456 556.65,-456 556.65,-462 550.65,-468 544.65,-468 544.65,-468 20,-468 20,-468 14,-468 8,-462 8,-456 8,-456 8,-20 8,-20 8,-14 14,-8 20,-8"></path>
<text text-anchor="middle" x="282.32" y="-455.9" font-family="Helvetica,sans-Serif" font-weight="bold" font-size="9.00">src</text>
</g>
<g id="clust2" class="cluster">
<title>cluster_src/Core</title>
<path fill="#ffffff" stroke="black" stroke-width="2" d="M90,-16C90,-16 307.57,-16 307.57,-16 313.57,-16 319.57,-22 319.57,-28 319.57,-28 319.57,-149 319.57,-149 319.57,-155 313.57,-161 307.57,-161 307.57,-161 90,-161 90,-161 84,-161 78,-155 78,-149 78,-149 78,-28 78,-28 78,-22 84,-16 90,-16"></path>
<text text-anchor="middle" x="198.79" y="-148.9" font-family="Helvetica,sans-Serif" font-weight="bold" font-size="9.00">Core</text>
</g>
<g id="clust3" class="cluster">
<title>cluster_src/Core/physics</title>
<path fill="#ffffff" stroke="black" stroke-width="2" d="M197.53,-81C197.53,-81 299.57,-81 299.57,-81 305.57,-81 311.57,-87 311.57,-93 311.57,-93 311.57,-122 311.57,-122 311.57,-128 305.57,-134 299.57,-134 299.57,-134 197.53,-134 197.53,-134 191.53,-134 185.53,-128 185.53,-122 185.53,-122 185.53,-93 185.53,-93 185.53,-87 191.53,-81 197.53,-81"></path>
<text text-anchor="middle" x="248.55" y="-121.9" font-family="Helvetica,sans-Serif" font-weight="bold" font-size="9.00">physics</text>
</g>
<g id="clust4" class="cluster">
<title>cluster_src/MVC</title>
<path fill="#ffffff" stroke="black" stroke-width="2" d="M225.55,-169C225.55,-169 536.65,-169 536.65,-169 542.65,-169 548.65,-175 548.65,-181 548.65,-181 548.65,-429 548.65,-429 548.65,-435 542.65,-441 536.65,-441 536.65,-441 225.55,-441 225.55,-441 219.55,-441 213.55,-435 213.55,-429 213.55,-429 213.55,-181 213.55,-181 213.55,-175 219.55,-169 225.55,-169"></path>
<text text-anchor="middle" x="381.1" y="-428.9" font-family="Helvetica,sans-Serif" font-weight="bold" font-size="9.00">MVC</text>
</g>
<g id="clust5" class="cluster">
<title>cluster_src/MVC/Controller</title>
<path fill="#ffffff" stroke="black" stroke-width="2" d="M339.57,-177C339.57,-177 517.13,-177 517.13,-177 523.13,-177 529.13,-183 529.13,-189 529.13,-189 529.13,-218 529.13,-218 529.13,-224 523.13,-230 517.13,-230 517.13,-230 339.57,-230 339.57,-230 333.57,-230 327.57,-224 327.57,-218 327.57,-218 327.57,-189 327.57,-189 327.57,-183 333.57,-177 339.57,-177"></path>
<text text-anchor="middle" x="428.35" y="-217.9" font-family="Helvetica,sans-Serif" font-weight="bold" font-size="9.00">Controller</text>
</g>
<g id="clust6" class="cluster">
<title>cluster_src/MVC/Model</title>
<path fill="#ffffff" stroke="black" stroke-width="2" d="M344.83,-238C344.83,-238 508.64,-238 508.64,-238 514.64,-238 520.64,-244 520.64,-250 520.64,-250 520.64,-279 520.64,-279 520.64,-285 514.64,-291 508.64,-291 508.64,-291 344.83,-291 344.83,-291 338.83,-291 332.83,-285 332.83,-279 332.83,-279 332.83,-250 332.83,-250 332.83,-244 338.83,-238 344.83,-238"></path>
<text text-anchor="middle" x="426.74" y="-278.9" font-family="Helvetica,sans-Serif" font-weight="bold" font-size="9.00">Model</text>
</g>
<g id="clust7" class="cluster">
<title>cluster_src/MVC/View</title>
<path fill="#ffffff" stroke="black" stroke-width="2" d="M344.83,-299C344.83,-299 528.65,-299 528.65,-299 534.65,-299 540.65,-305 540.65,-311 540.65,-311 540.65,-402 540.65,-402 540.65,-408 534.65,-414 528.65,-414 528.65,-414 344.83,-414 344.83,-414 338.83,-414 332.83,-408 332.83,-402 332.83,-402 332.83,-311 332.83,-311 332.83,-305 338.83,-299 344.83,-299"></path>
<text text-anchor="middle" x="436.74" y="-401.9" font-family="Helvetica,sans-Serif" font-weight="bold" font-size="9.00">View</text>
</g>
<!-- src/Core/CameraInitializer.ts -->
<g id="node1" class="node">
<title>src/Core/CameraInitializer.ts</title>
<g id="a_node1"><a xlink:href="src/Core/CameraInitializer.ts" xlink:title="CameraInitializer.ts">
<path fill="#ddfeff" stroke="black" d="M288.8,-42.4C288.8,-42.4 208.31,-42.4 208.31,-42.4 205.17,-42.4 202.04,-39.27 202.04,-36.13 202.04,-36.13 202.04,-29.87 202.04,-29.87 202.04,-26.73 205.17,-23.6 208.31,-23.6 208.31,-23.6 288.8,-23.6 288.8,-23.6 291.93,-23.6 295.06,-26.73 295.06,-29.87 295.06,-29.87 295.06,-36.13 295.06,-36.13 295.06,-39.27 291.93,-42.4 288.8,-42.4"></path>
<text text-anchor="start" x="210.04" y="-30.3" font-family="Helvetica,sans-Serif" font-size="9.00">CameraInitializer.ts</text>
</a>
</g>
</g>
<!-- src/Core/CanvasInitializer.ts -->
<g id="node2" class="node">
<title>src/Core/CanvasInitializer.ts</title>
<g id="a_node2"><a xlink:href="src/Core/CanvasInitializer.ts" xlink:title="CanvasInitializer.ts">
<path fill="#ddfeff" stroke="black" d="M171.26,-43.4C171.26,-43.4 92.27,-43.4 92.27,-43.4 89.13,-43.4 86,-40.27 86,-37.13 86,-37.13 86,-30.87 86,-30.87 86,-27.73 89.13,-24.6 92.27,-24.6 92.27,-24.6 171.26,-24.6 171.26,-24.6 174.4,-24.6 177.53,-27.73 177.53,-30.87 177.53,-30.87 177.53,-37.13 177.53,-37.13 177.53,-40.27 174.4,-43.4 171.26,-43.4"></path>
<text text-anchor="start" x="94" y="-31.3" font-family="Helvetica,sans-Serif" font-size="9.00">CanvasInitializer.ts</text>
</a>
</g>
</g>
<!-- src/Core/EngineInitializer.ts -->
<g id="node3" class="node">
<title>src/Core/EngineInitializer.ts</title>
<g id="a_node3"><a xlink:href="src/Core/EngineInitializer.ts" xlink:title="EngineInitializer.ts">
<path fill="#ddfeff" stroke="black" d="M170.02,-74.4C170.02,-74.4 93.51,-74.4 93.51,-74.4 90.38,-74.4 87.25,-71.27 87.25,-68.13 87.25,-68.13 87.25,-61.87 87.25,-61.87 87.25,-58.73 90.38,-55.6 93.51,-55.6 93.51,-55.6 170.02,-55.6 170.02,-55.6 173.15,-55.6 176.28,-58.73 176.28,-61.87 176.28,-61.87 176.28,-68.13 176.28,-68.13 176.28,-71.27 173.15,-74.4 170.02,-74.4"></path>
<text text-anchor="start" x="95.25" y="-62.3" font-family="Helvetica,sans-Serif" font-size="9.00">EngineInitializer.ts</text>
</a>
</g>
</g>
<!-- src/Core/GUILoader.ts -->
<g id="node4" class="node">
<title>src/Core/GUILoader.ts</title>
<g id="a_node4"><a xlink:href="src/Core/GUILoader.ts" xlink:title="GUILoader.ts">
<path fill="#ddfeff" stroke="black" d="M277.05,-73.4C277.05,-73.4 220.05,-73.4 220.05,-73.4 216.92,-73.4 213.79,-70.27 213.79,-67.13 213.79,-67.13 213.79,-60.87 213.79,-60.87 213.79,-57.73 216.92,-54.6 220.05,-54.6 220.05,-54.6 277.05,-54.6 277.05,-54.6 280.18,-54.6 283.31,-57.73 283.31,-60.87 283.31,-60.87 283.31,-67.13 283.31,-67.13 283.31,-70.27 280.18,-73.4 277.05,-73.4"></path>
<text text-anchor="start" x="221.79" y="-61.3" font-family="Helvetica,sans-Serif" font-size="9.00">GUILoader.ts</text>
</a>
</g>
</g>
<!-- src/Core/SceneInitializer.ts -->
<g id="node5" class="node">
<title>src/Core/SceneInitializer.ts</title>
<g id="a_node5"><a xlink:href="src/Core/SceneInitializer.ts" xlink:title="SceneInitializer.ts">
<path fill="#ddfeff" stroke="black" d="M168.76,-105.4C168.76,-105.4 94.76,-105.4 94.76,-105.4 91.63,-105.4 88.5,-102.27 88.5,-99.13 88.5,-99.13 88.5,-92.87 88.5,-92.87 88.5,-89.73 91.63,-86.6 94.76,-86.6 94.76,-86.6 168.76,-86.6 168.76,-86.6 171.9,-86.6 175.03,-89.73 175.03,-92.87 175.03,-92.87 175.03,-99.13 175.03,-99.13 175.03,-102.27 171.9,-105.4 168.76,-105.4"></path>
<text text-anchor="start" x="96.5" y="-93.3" font-family="Helvetica,sans-Serif" font-size="9.00">SceneInitializer.ts</text>
</a>
</g>
</g>
<!-- src/Core/SceneInitializer.ts&#45;&gt;src/Core/CameraInitializer.ts -->
<g id="edge2" class="edge">
<title>src/Core/SceneInitializer.ts-&gt;src/Core/CameraInitializer.ts</title>
<path fill="none" stroke="#000000" stroke-width="2" stroke-opacity="0.200000" d="M169.84,-86.26C172.68,-84.5 175.3,-82.44 177.53,-80 187.12,-69.49 175.47,-59.06 185.53,-49 188.02,-46.51 190.85,-44.38 193.89,-42.58"></path>
<polygon fill="#000000" fill-opacity="0.200000" stroke="#000000" stroke-width="2" stroke-opacity="0.200000" points="194.62,-44.56 199.1,-40.05 192.79,-40.78 194.62,-44.56"></polygon>
</g>
<!-- src/Core/SceneInitializer.ts&#45;&gt;src/Core/GUILoader.ts -->
<g id="edge3" class="edge">
<title>src/Core/SceneInitializer.ts-&gt;src/Core/GUILoader.ts</title>
<path fill="none" stroke="#000000" stroke-width="2" stroke-opacity="0.200000" d="M159.7,-86.19C167.94,-83.36 177.05,-80.39 185.53,-78 191.74,-76.25 198.34,-74.56 204.84,-73.01"></path>
<polygon fill="#000000" fill-opacity="0.200000" stroke="#000000" stroke-width="2" stroke-opacity="0.200000" points="205.27,-75.07 210.64,-71.66 204.32,-70.98 205.27,-75.07"></polygon>
</g>
<!-- src/MVC/MVC.ts -->
<g id="node6" class="node">
<title>src/MVC/MVC.ts</title>
<g id="a_node6"><a xlink:href="src/MVC/MVC.ts" xlink:title="MVC.ts">
<path fill="#ddfeff" stroke="black" d="M269.28,-233.4C269.28,-233.4 227.82,-233.4 227.82,-233.4 224.68,-233.4 221.55,-230.27 221.55,-227.13 221.55,-227.13 221.55,-220.87 221.55,-220.87 221.55,-217.73 224.68,-214.6 227.82,-214.6 227.82,-214.6 269.28,-214.6 269.28,-214.6 272.42,-214.6 275.55,-217.73 275.55,-220.87 275.55,-220.87 275.55,-227.13 275.55,-227.13 275.55,-230.27 272.42,-233.4 269.28,-233.4"></path>
<text text-anchor="start" x="233.8" y="-221.3" font-family="Helvetica,sans-Serif" font-size="9.00">MVC.ts</text>
</a>
</g>
</g>
<!-- src/Core/SceneInitializer.ts&#45;&gt;src/MVC/MVC.ts -->
<g id="edge1" class="edge">
<title>src/Core/SceneInitializer.ts-&gt;src/MVC/MVC.ts</title>
<path fill="none" stroke="#000000" stroke-width="2" stroke-opacity="0.200000" d="M141.39,-105.62C160.92,-127.4 208.68,-180.66 232.92,-207.69"></path>
<polygon fill="#000000" fill-opacity="0.200000" stroke="#000000" stroke-width="2" stroke-opacity="0.200000" points="231.23,-208.95 236.8,-212.01 234.36,-206.14 231.23,-208.95"></polygon>
</g>
<!-- src/Core/physics/HavokPhysicsEngine.ts -->
<g id="node7" class="node">
<title>src/Core/physics/HavokPhysicsEngine.ts</title>
<g id="a_node7"><a xlink:href="src/Core/physics/HavokPhysicsEngine.ts" xlink:title="HavokPhysicsEngine.ts">
<path fill="#ddfeff" stroke="black" d="M297.31,-107.4C297.31,-107.4 199.8,-107.4 199.8,-107.4 196.66,-107.4 193.53,-104.27 193.53,-101.13 193.53,-101.13 193.53,-94.87 193.53,-94.87 193.53,-91.73 196.66,-88.6 199.8,-88.6 199.8,-88.6 297.31,-88.6 297.31,-88.6 300.44,-88.6 303.57,-91.73 303.57,-94.87 303.57,-94.87 303.57,-101.13 303.57,-101.13 303.57,-104.27 300.44,-107.4 297.31,-107.4"></path>
<text text-anchor="start" x="201.53" y="-95.3" font-family="Helvetica,sans-Serif" font-size="9.00">HavokPhysicsEngine.ts</text>
</a>
</g>
</g>
<!-- src/Core/SceneInitializer.ts&#45;&gt;src/Core/physics/HavokPhysicsEngine.ts -->
<g id="edge4" class="edge">
<title>src/Core/SceneInitializer.ts-&gt;src/Core/physics/HavokPhysicsEngine.ts</title>
<path fill="none" stroke="#000000" stroke-width="2" stroke-opacity="0.200000" d="M175.51,-96.74C178.37,-96.79 181.3,-96.85 184.24,-96.9"></path>
<polygon fill="#000000" fill-opacity="0.200000" stroke="#000000" stroke-width="2" stroke-opacity="0.200000" points="184.03,-98.99 190.07,-97 184.1,-94.79 184.03,-98.99"></polygon>
</g>
<!-- src/MVC/Controller/Controller.ts -->
<g id="node9" class="node">
<title>src/MVC/Controller/Controller.ts</title>
<g id="a_node9"><a xlink:href="src/MVC/Controller/Controller.ts" xlink:title="Controller.ts">
<path fill="#ddfeff" stroke="black" d="M393.82,-203.4C393.82,-203.4 341.84,-203.4 341.84,-203.4 338.71,-203.4 335.57,-200.27 335.57,-197.13 335.57,-197.13 335.57,-190.87 335.57,-190.87 335.57,-187.73 338.71,-184.6 341.84,-184.6 341.84,-184.6 393.82,-184.6 393.82,-184.6 396.95,-184.6 400.09,-187.73 400.09,-190.87 400.09,-190.87 400.09,-197.13 400.09,-197.13 400.09,-200.27 396.95,-203.4 393.82,-203.4"></path>
<text text-anchor="start" x="343.57" y="-191.3" font-family="Helvetica,sans-Serif" font-size="9.00">Controller.ts</text>
</a>
</g>
</g>
<!-- src/MVC/MVC.ts&#45;&gt;src/MVC/Controller/Controller.ts -->
<g id="edge6" class="edge">
<title>src/MVC/MVC.ts-&gt;src/MVC/Controller/Controller.ts</title>
<path fill="none" stroke="#000000" stroke-width="2" stroke-opacity="0.200000" d="M275.87,-217.27C290.82,-213.44 309.85,-208.57 326.64,-204.28"></path>
<polygon fill="#000000" fill-opacity="0.200000" stroke="#000000" stroke-width="2" stroke-opacity="0.200000" points="326.95,-206.37 332.24,-202.85 325.91,-202.3 326.95,-206.37"></polygon>
</g>
<!-- src/MVC/Model/Model.ts -->
<g id="node10" class="node">
<title>src/MVC/Model/Model.ts</title>
<g id="a_node10"><a xlink:href="src/MVC/Model/Model.ts" xlink:title="Model.ts">
<path fill="#ddfeff" stroke="black" d="M388.56,-264.4C388.56,-264.4 347.1,-264.4 347.1,-264.4 343.96,-264.4 340.83,-261.27 340.83,-258.13 340.83,-258.13 340.83,-251.87 340.83,-251.87 340.83,-248.73 343.96,-245.6 347.1,-245.6 347.1,-245.6 388.56,-245.6 388.56,-245.6 391.7,-245.6 394.83,-248.73 394.83,-251.87 394.83,-251.87 394.83,-258.13 394.83,-258.13 394.83,-261.27 391.7,-264.4 388.56,-264.4"></path>
<text text-anchor="start" x="350.82" y="-252.3" font-family="Helvetica,sans-Serif" font-size="9.00">Model.ts</text>
</a>
</g>
</g>
<!-- src/MVC/MVC.ts&#45;&gt;src/MVC/Model/Model.ts -->
<g id="edge7" class="edge">
<title>src/MVC/MVC.ts-&gt;src/MVC/Model/Model.ts</title>
<path fill="none" stroke="#000000" stroke-width="2" stroke-opacity="0.200000" d="M275.87,-230.96C292.47,-235.34 314.09,-241.06 332.09,-245.82"></path>
<polygon fill="#000000" fill-opacity="0.200000" stroke="#000000" stroke-width="2" stroke-opacity="0.200000" points="331.33,-247.79 337.67,-247.29 332.41,-243.73 331.33,-247.79"></polygon>
</g>
<!-- src/MVC/View/View.ts -->
<g id="node11" class="node">
<title>src/MVC/View/View.ts</title>
<g id="a_node11"><a xlink:href="src/MVC/View/View.ts" xlink:title="View.ts">
<path fill="#ddfeff" stroke="black" d="M388.56,-340.4C388.56,-340.4 347.1,-340.4 347.1,-340.4 343.96,-340.4 340.83,-337.27 340.83,-334.13 340.83,-334.13 340.83,-327.87 340.83,-327.87 340.83,-324.73 343.96,-321.6 347.1,-321.6 347.1,-321.6 388.56,-321.6 388.56,-321.6 391.7,-321.6 394.83,-324.73 394.83,-327.87 394.83,-327.87 394.83,-334.13 394.83,-334.13 394.83,-337.27 391.7,-340.4 388.56,-340.4"></path>
<text text-anchor="start" x="353.33" y="-328.3" font-family="Helvetica,sans-Serif" font-size="9.00">View.ts</text>
</a>
</g>
</g>
<!-- src/MVC/MVC.ts&#45;&gt;src/MVC/View/View.ts -->
<g id="edge8" class="edge">
<title>src/MVC/MVC.ts-&gt;src/MVC/View/View.ts</title>
<path fill="none" stroke="#000000" stroke-width="2" stroke-opacity="0.200000" d="M260.37,-233.87C280.8,-252.51 325.16,-292.98 349.68,-315.35"></path>
<polygon fill="#000000" fill-opacity="0.200000" stroke="#000000" stroke-width="2" stroke-opacity="0.200000" points="347.95,-316.62 353.8,-319.11 350.78,-313.51 347.95,-316.62"></polygon>
</g>
<!-- src/MVC/Controller/CameraController.ts -->
<g id="node8" class="node">
<title>src/MVC/Controller/CameraController.ts</title>
<g id="a_node8"><a xlink:href="src/MVC/Controller/CameraController.ts" xlink:title="CameraController.ts">
<path fill="#ddfeff" stroke="black" d="M514.86,-203.4C514.86,-203.4 430.87,-203.4 430.87,-203.4 427.74,-203.4 424.61,-200.27 424.61,-197.13 424.61,-197.13 424.61,-190.87 424.61,-190.87 424.61,-187.73 427.74,-184.6 430.87,-184.6 430.87,-184.6 514.86,-184.6 514.86,-184.6 518,-184.6 521.13,-187.73 521.13,-190.87 521.13,-190.87 521.13,-197.13 521.13,-197.13 521.13,-200.27 518,-203.4 514.86,-203.4"></path>
<text text-anchor="start" x="432.61" y="-191.3" font-family="Helvetica,sans-Serif" font-size="9.00">CameraController.ts</text>
</a>
</g>
</g>
<!-- src/MVC/Controller/Controller.ts&#45;&gt;src/MVC/Controller/CameraController.ts -->
<g id="edge5" class="edge">
<title>src/MVC/Controller/Controller.ts-&gt;src/MVC/Controller/CameraController.ts</title>
<path fill="none" stroke="#000000" stroke-width="2" stroke-opacity="0.200000" d="M400.59,-194C405.24,-194 410.15,-194 415.13,-194"></path>
<polygon fill="#000000" fill-opacity="0.200000" stroke="#000000" stroke-width="2" stroke-opacity="0.200000" points="415.09,-196.1 421.09,-194 415.09,-191.9 415.09,-196.1"></polygon>
</g>
<!-- src/MVC/Model/SoundLoader.ts -->
<g id="node12" class="node">
<title>src/MVC/Model/SoundLoader.ts</title>
<g id="a_node12"><a xlink:href="src/MVC/Model/SoundLoader.ts" xlink:title="SoundLoader.ts">
<path fill="#ddfeff" stroke="black" d="M506.38,-264.4C506.38,-264.4 439.36,-264.4 439.36,-264.4 436.23,-264.4 433.09,-261.27 433.09,-258.13 433.09,-258.13 433.09,-251.87 433.09,-251.87 433.09,-248.73 436.23,-245.6 439.36,-245.6 439.36,-245.6 506.38,-245.6 506.38,-245.6 509.51,-245.6 512.64,-248.73 512.64,-251.87 512.64,-251.87 512.64,-258.13 512.64,-258.13 512.64,-261.27 509.51,-264.4 506.38,-264.4"></path>
<text text-anchor="start" x="441.09" y="-252.3" font-family="Helvetica,sans-Serif" font-size="9.00">SoundLoader.ts</text>
</a>
</g>
</g>
<!-- src/MVC/Model/Model.ts&#45;&gt;src/MVC/Model/SoundLoader.ts -->
<g id="edge9" class="edge">
<title>src/MVC/Model/Model.ts-&gt;src/MVC/Model/SoundLoader.ts</title>
<path fill="none" stroke="#000000" stroke-width="2" stroke-opacity="0.200000" d="M395.1,-255C403.86,-255 413.92,-255 423.81,-255"></path>
<polygon fill="#000000" fill-opacity="0.200000" stroke="#000000" stroke-width="2" stroke-opacity="0.200000" points="423.78,-257.1 429.78,-255 423.78,-252.9 423.78,-257.1"></polygon>
</g>
<!-- src/MVC/View/ViewBallOutPhrase.ts -->
<g id="node13" class="node">
<title>src/MVC/View/ViewBallOutPhrase.ts</title>
<g id="a_node13"><a xlink:href="src/MVC/View/ViewBallOutPhrase.ts" xlink:title="ViewBallOutPhrase.ts">
<path fill="#ddfeff" stroke="black" d="M518.12,-325.4C518.12,-325.4 427.62,-325.4 427.62,-325.4 424.48,-325.4 421.35,-322.27 421.35,-319.13 421.35,-319.13 421.35,-312.87 421.35,-312.87 421.35,-309.73 424.48,-306.6 427.62,-306.6 427.62,-306.6 518.12,-306.6 518.12,-306.6 521.25,-306.6 524.39,-309.73 524.39,-312.87 524.39,-312.87 524.39,-319.13 524.39,-319.13 524.39,-322.27 521.25,-325.4 518.12,-325.4"></path>
<text text-anchor="start" x="429.35" y="-313.3" font-family="Helvetica,sans-Serif" font-size="9.00">ViewBallOutPhrase.ts</text>
</a>
</g>
</g>
<!-- src/MVC/View/View.ts&#45;&gt;src/MVC/View/ViewBallOutPhrase.ts -->
<g id="edge10" class="edge">
<title>src/MVC/View/View.ts-&gt;src/MVC/View/ViewBallOutPhrase.ts</title>
<path fill="none" stroke="#000000" stroke-width="2" stroke-opacity="0.200000" d="M395.1,-327.18C400.47,-326.39 406.32,-325.54 412.32,-324.67"></path>
<polygon fill="#000000" fill-opacity="0.200000" stroke="#000000" stroke-width="2" stroke-opacity="0.200000" points="412.55,-326.76 418.19,-323.81 411.95,-322.6 412.55,-326.76"></polygon>
</g>
<!-- src/MVC/View/ViewLanguageSwitcher.ts -->
<g id="node14" class="node">
<title>src/MVC/View/ViewLanguageSwitcher.ts</title>
<g id="a_node14"><a xlink:href="src/MVC/View/ViewLanguageSwitcher.ts" xlink:title="ViewLanguageSwitcher.ts">
<path fill="#ddfeff" stroke="black" d="M526.38,-356.4C526.38,-356.4 419.35,-356.4 419.35,-356.4 416.22,-356.4 413.09,-353.27 413.09,-350.13 413.09,-350.13 413.09,-343.87 413.09,-343.87 413.09,-340.73 416.22,-337.6 419.35,-337.6 419.35,-337.6 526.38,-337.6 526.38,-337.6 529.52,-337.6 532.65,-340.73 532.65,-343.87 532.65,-343.87 532.65,-350.13 532.65,-350.13 532.65,-353.27 529.52,-356.4 526.38,-356.4"></path>
<text text-anchor="start" x="421.09" y="-344.3" font-family="Helvetica,sans-Serif" font-size="9.00">ViewLanguageSwitcher.ts</text>
</a>
</g>
</g>
<!-- src/MVC/View/View.ts&#45;&gt;src/MVC/View/ViewLanguageSwitcher.ts -->
<g id="edge11" class="edge">
<title>src/MVC/View/View.ts-&gt;src/MVC/View/ViewLanguageSwitcher.ts</title>
<path fill="none" stroke="#000000" stroke-width="2" stroke-opacity="0.200000" d="M395.1,-335.08C397.93,-335.52 400.89,-335.98 403.94,-336.45"></path>
<polygon fill="#000000" fill-opacity="0.200000" stroke="#000000" stroke-width="2" stroke-opacity="0.200000" points="403.47,-338.5 409.73,-337.35 404.12,-334.35 403.47,-338.5"></polygon>
</g>
<!-- src/MVC/View/ViewPendulumPhrase.ts -->
<g id="node15" class="node">
<title>src/MVC/View/ViewPendulumPhrase.ts</title>
<g id="a_node15"><a xlink:href="src/MVC/View/ViewPendulumPhrase.ts" xlink:title="ViewPendulumPhrase.ts">
<path fill="#ddfeff" stroke="black" d="M523.63,-387.4C523.63,-387.4 422.11,-387.4 422.11,-387.4 418.98,-387.4 415.84,-384.27 415.84,-381.13 415.84,-381.13 415.84,-374.87 415.84,-374.87 415.84,-371.73 418.98,-368.6 422.11,-368.6 422.11,-368.6 523.63,-368.6 523.63,-368.6 526.76,-368.6 529.89,-371.73 529.89,-374.87 529.89,-374.87 529.89,-381.13 529.89,-381.13 529.89,-384.27 526.76,-387.4 523.63,-387.4"></path>
<text text-anchor="start" x="423.84" y="-375.3" font-family="Helvetica,sans-Serif" font-size="9.00">ViewPendulumPhrase.ts</text>
</a>
</g>
</g>
<!-- src/MVC/View/View.ts&#45;&gt;src/MVC/View/ViewPendulumPhrase.ts -->
<g id="edge12" class="edge">
<title>src/MVC/View/View.ts-&gt;src/MVC/View/ViewPendulumPhrase.ts</title>
<path fill="none" stroke="#000000" stroke-width="2" stroke-opacity="0.200000" d="M380.53,-340.89C389.07,-347.68 401.2,-356.43 413.09,-362 415.58,-363.17 418.17,-364.26 420.81,-365.29"></path>
<polygon fill="#000000" fill-opacity="0.200000" stroke="#000000" stroke-width="2" stroke-opacity="0.200000" points="419.66,-367.11 426.01,-367.14 421.07,-363.15 419.66,-367.11"></polygon>
</g>
<!-- src/game.ts -->
<g id="node16" class="node">
<title>src/game.ts</title>
<g id="a_node16"><a xlink:href="src/game.ts" xlink:title="game.ts">
<path fill="#ddfeff" stroke="black" d="M63.73,-74.4C63.73,-74.4 22.27,-74.4 22.27,-74.4 19.13,-74.4 16,-71.27 16,-68.13 16,-68.13 16,-61.87 16,-61.87 16,-58.73 19.13,-55.6 22.27,-55.6 22.27,-55.6 63.73,-55.6 63.73,-55.6 66.87,-55.6 70,-58.73 70,-61.87 70,-61.87 70,-68.13 70,-68.13 70,-71.27 66.87,-74.4 63.73,-74.4"></path>
<text text-anchor="start" x="26.99" y="-62.3" font-family="Helvetica,sans-Serif" font-size="9.00">game.ts</text>
</a>
</g>
</g>
<!-- src/game.ts&#45;&gt;src/Core/CanvasInitializer.ts -->
<g id="edge13" class="edge">
<title>src/game.ts-&gt;src/Core/CanvasInitializer.ts</title>
<path fill="none" stroke="#000000" stroke-width="2" stroke-opacity="0.200000" d="M65.06,-55.24C69.3,-53.4 73.77,-51.57 78,-50 81.19,-48.82 84.51,-47.65 87.87,-46.53"></path>
<polygon fill="#000000" fill-opacity="0.200000" stroke="#000000" stroke-width="2" stroke-opacity="0.200000" points="88.28,-48.6 93.34,-44.75 86.99,-44.61 88.28,-48.6"></polygon>
</g>
<!-- src/game.ts&#45;&gt;src/Core/EngineInitializer.ts -->
<g id="edge14" class="edge">
<title>src/game.ts-&gt;src/Core/EngineInitializer.ts</title>
<path fill="none" stroke="#000000" stroke-width="2" stroke-opacity="0.200000" d="M70.03,-65C72.64,-65 75.36,-65 78.12,-65"></path>
<polygon fill="#000000" fill-opacity="0.200000" stroke="#000000" stroke-width="2" stroke-opacity="0.200000" points="78.04,-67.1 84.04,-65 78.04,-62.9 78.04,-67.1"></polygon>
</g>
<!-- src/game.ts&#45;&gt;src/Core/SceneInitializer.ts -->
<g id="edge15" class="edge">
<title>src/game.ts-&gt;src/Core/SceneInitializer.ts</title>
<path fill="none" stroke="#000000" stroke-width="2" stroke-opacity="0.200000" d="M65.06,-74.76C69.3,-76.6 73.77,-78.43 78,-80 81.19,-81.18 84.51,-82.35 87.87,-83.47"></path>
<polygon fill="#000000" fill-opacity="0.200000" stroke="#000000" stroke-width="2" stroke-opacity="0.200000" points="86.99,-85.39 93.34,-85.25 88.28,-81.4 86.99,-85.39"></polygon>
</g>
</g>
</svg>